<?xml version="1.0" standalone="no"?>
<!DOCTYPE svg PUBLIC "-//W3C//DTD SVG 20010904//EN"
 "http://www.w3.org/TR/2001/REC-SVG-20010904/DTD/svg10.dtd">
<svg version="1.0" xmlns="http://www.w3.org/2000/svg"
 width="16.000000pt" height="16.000000pt" viewBox="0 0 16.000000 16.000000"
 preserveAspectRatio="xMidYMid meet">

<g transform="translate(0.000000,16.000000) scale(0.100000,-0.100000)"
fill="#000000" stroke="none">
<path d="M3 144 c0 -9 6 -13 14 -9 8 3 17 5 19 5 14 0 1 16 -14 17 -10 1 -19
-5 -19 -13z"/>
<path d="M66 136 c-4 -15 -4 -36 -1 -47 8 -23 -20 -27 -29 -4 -3 8 -12 15 -21
15 -17 0 -21 -16 -4 -22 5 -2 11 -11 13 -20 3 -21 16 -36 16 -20 0 18 28 14
40 -5 9 -15 10 -12 8 16 -2 18 0 33 5 32 4 -1 12 -1 17 -1 6 0 10 -8 11 -17 1
-12 4 -9 8 7 5 14 14 24 22 22 8 -2 10 0 6 5 -5 4 -14 8 -20 8 -7 0 -11 11 -9
28 4 30 -9 35 -29 11 -12 -14 -14 -14 -19 2 -6 15 -8 13 -14 -10z m54 0 c0 -3
-4 -8 -10 -11 -5 -3 -10 -1 -10 4 0 6 5 11 10 11 6 0 10 -2 10 -4z"/>
<path d="M145 150 c3 -5 8 -10 11 -10 2 0 4 5 4 10 0 6 -5 10 -11 10 -5 0 -7
-4 -4 -10z"/>
<path d="M30 120 c0 -5 5 -10 11 -10 5 0 7 5 4 10 -3 6 -8 10 -11 10 -2 0 -4
-4 -4 -10z"/>
<path d="M135 120 c-3 -6 1 -7 9 -4 18 7 21 14 7 14 -6 0 -13 -4 -16 -10z"/>
<path d="M149 78 c-7 -25 -7 -48 1 -48 5 0 9 11 8 25 -2 21 -6 32 -9 23z"/>
</g>
</svg>
